<svg id="orbi" xmlns="http://www.w3.org/2000/svg" width="247.237" height="120.541" viewBox="0 0 247.237 120.541">
  <path id="Caminho_57" data-name="Caminho 57" d="M50.4,77.476H31.457v-66.5h4.581L42.3,18.9a34.049,34.049,0,0,1,10.419-5.738,36.7,36.7,0,0,1,12.055-2.021H81.485v16.89H64.737a15.993,15.993,0,0,0-5.631.991,14.578,14.578,0,0,0-4.581,2.734,12.741,12.741,0,0,0-3.057,4.1,11.681,11.681,0,0,0-1.111,5.033Z" transform="translate(52.712 18.385)" fill="#512179"/>
  <path id="Caminho_58" data-name="Caminho 58" d="M109.2,60.2a17.411,17.411,0,0,0-1.49-7.133,17.953,17.953,0,0,0-4.064-5.738,18.775,18.775,0,0,0-6.027-3.788,19.694,19.694,0,0,0-7.336-1.371,17.9,17.9,0,0,0-7.328,1.53,19.992,19.992,0,0,0-6.027,4.034A18.65,18.65,0,0,0,72.9,53.5a16.348,16.348,0,0,0-1.455,6.737A17.38,17.38,0,0,0,72.9,67.369a18.2,18.2,0,0,0,10.04,9.511,19.97,19.97,0,0,0,14.638,0,19.276,19.276,0,0,0,6.027-3.82,18.018,18.018,0,0,0,4.064-5.714,17.126,17.126,0,0,0,1.49-7.133Zm19.064.016A33.389,33.389,0,0,1,117.2,85.49a36.52,36.52,0,0,1-12.114,7.217,42.649,42.649,0,0,1-14.836,2.544,41.505,41.505,0,0,1-14.716-2.608,37.288,37.288,0,0,1-12.129-7.3A33.929,33.929,0,0,1,55.279,74.3,33.157,33.157,0,0,1,52.3,60.165V1.087H71.337V32.132a16.442,16.442,0,0,1,3.711-3.1,23.5,23.5,0,0,1,4.727-2.243,33.613,33.613,0,0,1,5.244-1.332,31.289,31.289,0,0,1,5.278-.467,41.212,41.212,0,0,1,14.836,2.663,37.312,37.312,0,0,1,12.055,7.363,35,35,0,0,1,8.3,11.562A32.642,32.642,0,0,1,128.279,60.2" transform="translate(87.632 1.822)" fill="#512179"/>
  <path id="Caminho_59" data-name="Caminho 59" d="M105.106,95.861H86v-66.5h19.107Zm3.264-84.567a9.857,9.857,0,0,1-1.007,4.407,11.352,11.352,0,0,1-2.738,3.567,13.616,13.616,0,0,1-4.064,2.425,14.029,14.029,0,0,1-7.376.7,13.407,13.407,0,0,1-6.591-3.128A11.532,11.532,0,0,1,83.881,15.7a10.085,10.085,0,0,1,0-8.79,11.475,11.475,0,0,1,2.712-3.59A13.5,13.5,0,0,1,93.187.209,14.124,14.124,0,0,1,100.56.9,13.611,13.611,0,0,1,104.6,3.321a11.3,11.3,0,0,1,2.738,3.6,9.918,9.918,0,0,1,1.007,4.383" transform="translate(138.867 0)" fill="#512179"/>
  <path id="Caminho_60" data-name="Caminho 60" d="M55.411,64.176a17.068,17.068,0,0,1-4.064,5.706,18.491,18.491,0,0,1-6.027,3.67,20.612,20.612,0,0,1-7.328,1.3,19.426,19.426,0,0,1-7.336-1.4,18.909,18.909,0,0,1-5.976-3.82,17.967,17.967,0,0,1-4-5.714,17.549,17.549,0,0,1-1.455-7.133,18.421,18.421,0,0,1,1.455-7.418A17.133,17.133,0,0,1,30.655,40a21.83,21.83,0,0,1,14.638,0,17.412,17.412,0,0,1,10.092,9.376,19.08,19.08,0,0,1,0,14.813ZM73,42.357a33.925,33.925,0,0,0-8.128-11.1,36.754,36.754,0,0,0-12.055-7.133,43.211,43.211,0,0,0-14.836-2.512c-1,0-1.981.048-2.962.111l20.381-4.7-3.78-13.9L19.255,10.544l3.78,13.8A38.525,38.525,0,0,0,11.152,31.6,34.317,34.317,0,0,0,2.99,42.753,33.028,33.028,0,0,0,0,56.782,32.527,32.527,0,0,0,2.99,70.659a34.369,34.369,0,0,0,8.163,11.1,38.962,38.962,0,0,0,12.055,7.387,41.853,41.853,0,0,0,29.6,0,38.6,38.6,0,0,0,12.055-7.387,34.9,34.9,0,0,0,8.287-11.471,32.543,32.543,0,0,0,2.829-13.527,34.145,34.145,0,0,0-2.988-14.433" transform="translate(0 5.237)" fill="#512179"/>
  <path id="Caminho_61" data-name="Caminho 61" d="M63.527,43.528l-2.015,1.807a2.179,2.179,0,0,0-.4-.674,2.9,2.9,0,0,0-.586-.515,2.821,2.821,0,0,0-.715-.309,2.865,2.865,0,0,0-.783-.111,2.772,2.772,0,0,0-1.059.206,2.714,2.714,0,0,0-.861.578,2.872,2.872,0,0,0-.577.888,2.947,2.947,0,0,0-.207,1.133,2.143,2.143,0,0,0,.207.935,2.646,2.646,0,0,0,.577.793,2.842,2.842,0,0,0,.861.523,3.075,3.075,0,0,0,1.059.182,3.13,3.13,0,0,0,.775-.095,2.778,2.778,0,0,0,.7-.285,2.554,2.554,0,0,0,.585-.444,2.525,2.525,0,0,0,.413-.595l2.015,1.807a5.161,5.161,0,0,1-.861.872,5.7,5.7,0,0,1-1.085.658,5.624,5.624,0,0,1-1.205.412,6.634,6.634,0,0,1-1.317.135A5.829,5.829,0,0,1,55.158,50a4.863,4.863,0,0,1-1.18-1.585,4.245,4.245,0,0,1-.431-1.9,4.926,4.926,0,0,1,.882-2.9,5.573,5.573,0,0,1,2.476-1.972,5.484,5.484,0,0,1,2.118-.412,5.782,5.782,0,0,1,1.326.159,6.087,6.087,0,0,1,1.231.436,5.187,5.187,0,0,1,1.085.721,4.587,4.587,0,0,1,.861.967" transform="translate(89.726 69.087)" fill="#512179"/>
  <path id="Caminho_62" data-name="Caminho 62" d="M67.211,46.317a2.591,2.591,0,0,0-.224-1.078,2.445,2.445,0,0,0-.586-.793,2.6,2.6,0,0,0-.861-.531,3.076,3.076,0,0,0-1.059-.182,3.11,3.11,0,0,0-1.059.182,2.6,2.6,0,0,0-.861.531,2.412,2.412,0,0,0-.577.793,2.586,2.586,0,0,0-.215,1.078,2.412,2.412,0,0,0,.215,1.03,2.635,2.635,0,0,0,1.438,1.379,2.776,2.776,0,0,0,1.059.2,2.9,2.9,0,0,0,1.059-.182,2.764,2.764,0,0,0,.861-.531,2.442,2.442,0,0,0,.586-.793,2.575,2.575,0,0,0,.224-1.07Zm2.764.032a4.632,4.632,0,0,1-.4,1.989,5.04,5.04,0,0,1-1.171,1.585,5.655,5.655,0,0,1-1.722,1.07,5.86,5.86,0,0,1-2.153.388,5.781,5.781,0,0,1-2.135-.388,5.688,5.688,0,0,1-1.722-1.07,5.031,5.031,0,0,1-1.2-1.658A4.943,4.943,0,0,1,59.5,44.28a4.891,4.891,0,0,1,1.18-1.585A5.52,5.52,0,0,1,62.4,41.633a5.781,5.781,0,0,1,2.135-.389,6.2,6.2,0,0,1,2.153.365,5.27,5.27,0,0,1,1.748,1.046A4.793,4.793,0,0,1,69.6,44.249a4.877,4.877,0,0,1,.439,2.092" transform="translate(98.974 69.112)" fill="#512179"/>
  <path id="Caminho_63" data-name="Caminho 63" d="M67.994,51.1H65.248V41.481h.663l.9.935a4.83,4.83,0,0,1,1.507-.793,5.357,5.357,0,0,1,3.608,0,4.946,4.946,0,0,1,1.533.927,4.4,4.4,0,0,1,1.025,1.379,3.7,3.7,0,0,1,.379,1.672V51.1h-2.73V45.6a1.67,1.67,0,0,0-.155-.713,1.955,1.955,0,0,0-.448-.594,2.157,2.157,0,0,0-1.447-.531,2.284,2.284,0,0,0-.809.143,2.12,2.12,0,0,0-.663.389,1.955,1.955,0,0,0-.448.594,1.67,1.67,0,0,0-.155.713Z" transform="translate(109.333 69.224)" fill="#512179"/>
  <path id="Caminho_64" data-name="Caminho 64" d="M77.145,43.81a1.631,1.631,0,0,0-.379-.087h-.379a3.076,3.076,0,0,0-1.059.182,2.548,2.548,0,0,0-.861.531,2.419,2.419,0,0,0-.577.793,2.737,2.737,0,0,0-.215,1.086v.3a2.611,2.611,0,0,0,.052.349,1.172,1.172,0,0,0,.086.341,1.475,1.475,0,0,0,.129.285Zm-1.4,5.048a1.492,1.492,0,0,0,.318.063h.327a3.062,3.062,0,0,0,.766-.095,2.838,2.838,0,0,0,.706-.285,2.548,2.548,0,0,0,.577-.444,2.464,2.464,0,0,0,.422-.595l2.006,1.807a4.852,4.852,0,0,1-.861.872,5.237,5.237,0,0,1-1.076.658,5.877,5.877,0,0,1-1.214.412,6.527,6.527,0,0,1-1.309.135,6.026,6.026,0,0,1-2.144-.38,5.181,5.181,0,0,1-2.927-2.647,4.862,4.862,0,0,1-.431-2.045,5,5,0,0,1,.431-2.084,4.718,4.718,0,0,1,1.188-1.585,5.315,5.315,0,0,1,1.722-1.03,6.193,6.193,0,0,1,2.144-.373,5.7,5.7,0,0,1,1.318.151,5.458,5.458,0,0,1,1.214.412A5.3,5.3,0,0,1,80,42.462a5.445,5.445,0,0,1,.861.872Z" transform="translate(118.807 69.107)" fill="#512179"/>
  <path id="Caminho_65" data-name="Caminho 65" d="M86.431,43.514,84.39,45.32a2.4,2.4,0,0,0-.413-.673,2.681,2.681,0,0,0-.585-.515,2.828,2.828,0,0,0-.715-.309,2.793,2.793,0,0,0-.775-.111,2.832,2.832,0,0,0-1.068.206,2.58,2.58,0,0,0-.861.579,2.722,2.722,0,0,0-.577.888,2.82,2.82,0,0,0-.215,1.133,2.033,2.033,0,0,0,.215.935,2.5,2.5,0,0,0,.577.793,2.713,2.713,0,0,0,.861.523,3.166,3.166,0,0,0,1.068.182,3.014,3.014,0,0,0,.766-.1,2.7,2.7,0,0,0,.7-.285,2.4,2.4,0,0,0,.585-.444,2.348,2.348,0,0,0,.439-.57L86.4,49.363a4.871,4.871,0,0,1-.861.872,5.756,5.756,0,0,1-2.29,1.07,6.527,6.527,0,0,1-1.309.135,5.83,5.83,0,0,1-3.892-1.427,4.87,4.87,0,0,1-1.18-1.585,4.363,4.363,0,0,1-.431-1.9,5.055,5.055,0,0,1,.431-2.069,5.377,5.377,0,0,1,2.928-2.806,5.551,5.551,0,0,1,2.144-.412,5.646,5.646,0,0,1,1.317.159,5.9,5.9,0,0,1,1.231.436,5.413,5.413,0,0,1,1.094.721,4.565,4.565,0,0,1,.861.967" transform="translate(128.077 69.102)" fill="#512179"/>
  <path id="Caminho_66" data-name="Caminho 66" d="M88.111,53.386a5.183,5.183,0,0,1-1.859-.313,4.883,4.883,0,0,1-1.585-.947,4.269,4.269,0,0,1-1.033-1.371,3.79,3.79,0,0,1-.379-1.664V46.229H81.92V43.788h1.335V39.944h2.738v3.844h4.159v2.441H85.993V49.09a1.722,1.722,0,0,0,.155.721,1.926,1.926,0,0,0,.448.587,2.078,2.078,0,0,0,.663.4,2.128,2.128,0,0,0,.861.151H90.2v2.441Z" transform="translate(137.271 66.933)" fill="#512179"/>
  <path id="Caminho_67" data-name="Caminho 67" d="M95.14,46.292a2.218,2.218,0,0,0-.215-.975A2.8,2.8,0,0,0,93.478,43.9a2.68,2.68,0,0,0-1.059-.222,3.163,3.163,0,0,0-1.068.174,2.477,2.477,0,0,0-.861.5,2.377,2.377,0,0,0-.577.793,3.007,3.007,0,0,0,0,2.235,2.376,2.376,0,0,0,.577.793,2.619,2.619,0,0,0,.861.5,3.17,3.17,0,0,0,1.068.174,2.685,2.685,0,0,0,1.059-.222,3.016,3.016,0,0,0,.861-.587,2.949,2.949,0,0,0,.585-.793,2.3,2.3,0,0,0,.215-.975ZM97.9,51.159h-.663L96.173,49.9a8.7,8.7,0,0,1-.861.587,6.643,6.643,0,0,1-.921.476,5.5,5.5,0,0,1-.99.317,4.47,4.47,0,0,1-1.025.119,6.57,6.57,0,0,1-2.144-.341,5.351,5.351,0,0,1-1.722-.991,4.763,4.763,0,0,1-1.18-1.585,5.16,5.16,0,0,1-.431-2.148,4.74,4.74,0,0,1,1.61-3.646,5.505,5.505,0,0,1,1.722-1.054,6.192,6.192,0,0,1,2.144-.372,4.607,4.607,0,0,1,1.033.119,6.27,6.27,0,0,1,.99.325,6.193,6.193,0,0,1,.921.483,6.73,6.73,0,0,1,.818.6l1.068-1.141h.663Z" transform="translate(145.613 69.137)" fill="#512179"/>
</svg>
